<!-- Generator: Adobe Illustrator 18.1.0, SVG Export Plug-In  -->
<svg version="1.1"
	 xmlns="http://www.w3.org/2000/svg" xmlns:xlink="http://www.w3.org/1999/xlink" xmlns:a="http://ns.adobe.com/AdobeSVGViewerExtensions/3.0/"
	 x="0px" y="0px" width="28px" height="32px" viewBox="0 0 28 32" enable-background="new 0 0 28 32" xml:space="preserve">
<defs>
</defs>
<path d="M24.3,18.4c-0.4-0.4-1.4-0.6-2.8-0.7c-1,0-2.1,0.1-3.4,0.2c-0.6-0.3-1.1-0.7-1.6-1.1c-1.2-1.1-2.2-2.7-2.8-4.4
	c0-0.2,0.1-0.3,0.1-0.4c0,0,0.7-3.8,0.5-5.1c0-0.2,0-0.2-0.1-0.4l-0.1-0.2C14,6,13.6,5.5,13.1,5.6l-0.3,0c-0.6,0-1.1,0.3-1.3,0.8
	c-0.4,1.5,0,3.8,0.8,6.7L12,13.6c-0.6,1.3-1.2,2.7-1.8,3.9l-0.1,0.2c-0.6,1.3-1.2,2.3-1.7,3.2l-0.5,0.3c0,0-1,0.5-1.2,0.6
	c-1.9,1.1-3.1,2.4-3.3,3.4c-0.1,0.3,0,0.7,0.3,0.9l0.5,0.3c0.2,0.1,0.5,0.2,0.7,0.2c1.3,0,2.9-1.6,5-5.3c2.4-0.8,5.2-1.5,7.6-1.8
	c1.9,1,4.1,1.8,5.6,1.8c0.3,0,0.5,0,0.7-0.1c0.3-0.1,0.5-0.2,0.6-0.4c0.3-0.4,0.3-1,0.3-1.6C24.6,18.8,24.5,18.6,24.3,18.4
	L24.3,18.4z M4.6,25.4c0.2-0.7,1.2-2,2.6-3.1c0.1-0.1,0.3-0.3,0.5-0.5C6.2,24.2,5.3,25.1,4.6,25.4z M13,6.2c0.4,0,0.7,1.1,0.7,2.1
	s-0.2,1.7-0.5,2.2c-0.2-0.8-0.4-2-0.4-2.8C12.8,7.8,12.8,6.2,13,6.2z M10.5,19.9c0.3-0.5,0.6-1.1,0.9-1.7c0.8-1.4,1.2-2.6,1.6-3.5
	c0.7,1.3,1.6,2.4,2.7,3.3c0.1,0.1,0.3,0.2,0.4,0.3C13.9,18.8,12.1,19.3,10.5,19.9L10.5,19.9z M23.9,19.8c-0.1,0.1-0.5,0.1-0.7,0.1
	c-0.8,0-1.7-0.4-3.1-0.9c0.5,0,1-0.1,1.4-0.1c0.8,0,1,0,1.8,0.2S24,19.7,23.9,19.8L23.9,19.8z M26.2,6.2l-4.5-4.5
	c-1-1-2.9-1.8-4.3-1.8h-15C1.1,0,0,1.1,0,2.5v27C0,30.9,1.1,32,2.5,32h23c1.4,0,2.5-1.1,2.5-2.5v-19C28,9.1,27.2,7.2,26.2,6.2
	L26.2,6.2z M24.8,7.6C24.9,7.7,25,7.9,25.1,8H20V2.9c0.1,0.1,0.3,0.2,0.4,0.3L24.8,7.6L24.8,7.6z M26,29.5c0,0.3-0.2,0.5-0.5,0.5
	h-23C2.2,30,2,29.8,2,29.5v-27C2,2.2,2.2,2,2.5,2h15c0.2,0,0.3,0,0.5,0.1V10h7.9c0,0.2,0.1,0.3,0.1,0.5V29.5z"/>
</svg>
